<mxfile host="Electron" modified="2023-09-01T19:38:25.911Z" agent="Mozilla/5.0 (X11; Linux x86_64) AppleWebKit/537.36 (KHTML, like Gecko) draw.io/21.6.8 Chrome/114.0.5735.289 Electron/25.5.0 Safari/537.36" etag="Rww03zPRRg7hAlW4aAip" version="21.6.8" type="device">
  <diagram name="Page-1" id="b520641d-4fe3-3701-9064-5fc419738815">
    <mxGraphModel dx="1434" dy="907" grid="1" gridSize="10" guides="1" tooltips="1" connect="1" arrows="1" fold="1" page="1" pageScale="1" pageWidth="1100" pageHeight="850" background="none" math="0" shadow="0">
      <root>
        <mxCell id="0" />
        <mxCell id="1" parent="0" />
        <mxCell id="yqe6dRdyDtMansCxqnrz-1" value="&lt;font style=&quot;font-size: 40px;&quot;&gt;Магазин мебели&lt;/font&gt;" style="text;html=1;strokeColor=none;fillColor=none;spacing=5;spacingTop=-20;whiteSpace=wrap;overflow=hidden;rounded=1;labelBackgroundColor=none;fontColor=#1A1A1A;" parent="1" vertex="1">
          <mxGeometry y="20" width="420" height="40" as="geometry" />
        </mxCell>
        <mxCell id="yqe6dRdyDtMansCxqnrz-6" value="Мебель" style="shape=table;startSize=30;container=1;collapsible=0;childLayout=tableLayout;fixedRows=1;rowLines=0;fontStyle=0;strokeColor=#909090;fontSize=16;rounded=1;labelBackgroundColor=none;fillColor=#F5AB50;fontColor=#1A1A1A;" parent="1" vertex="1">
          <mxGeometry x="610" y="510" width="230" height="300" as="geometry" />
        </mxCell>
        <mxCell id="yqe6dRdyDtMansCxqnrz-7" value="" style="shape=tableRow;horizontal=0;startSize=0;swimlaneHead=0;swimlaneBody=0;top=0;left=0;bottom=0;right=0;collapsible=0;dropTarget=0;fillColor=none;points=[[0,0.5],[1,0.5]];portConstraint=eastwest;strokeColor=#909090;fontSize=16;rounded=1;labelBackgroundColor=none;fontColor=#1A1A1A;" parent="yqe6dRdyDtMansCxqnrz-6" vertex="1">
          <mxGeometry y="30" width="230" height="30" as="geometry" />
        </mxCell>
        <mxCell id="yqe6dRdyDtMansCxqnrz-8" value="1" style="shape=partialRectangle;html=1;whiteSpace=wrap;connectable=0;fillColor=none;top=0;left=0;bottom=0;right=0;overflow=hidden;pointerEvents=1;strokeColor=#909090;fontSize=16;rounded=1;labelBackgroundColor=none;fontColor=#1A1A1A;" parent="yqe6dRdyDtMansCxqnrz-7" vertex="1">
          <mxGeometry width="51" height="30" as="geometry">
            <mxRectangle width="51" height="30" as="alternateBounds" />
          </mxGeometry>
        </mxCell>
        <mxCell id="yqe6dRdyDtMansCxqnrz-9" value="id" style="shape=partialRectangle;html=1;whiteSpace=wrap;connectable=0;fillColor=none;top=0;left=0;bottom=0;right=0;align=left;spacingLeft=6;overflow=hidden;strokeColor=#909090;fontSize=16;rounded=1;labelBackgroundColor=none;fontColor=#1A1A1A;" parent="yqe6dRdyDtMansCxqnrz-7" vertex="1">
          <mxGeometry x="51" width="179" height="30" as="geometry">
            <mxRectangle width="179" height="30" as="alternateBounds" />
          </mxGeometry>
        </mxCell>
        <mxCell id="yqe6dRdyDtMansCxqnrz-10" value="" style="shape=tableRow;horizontal=0;startSize=0;swimlaneHead=0;swimlaneBody=0;top=0;left=0;bottom=0;right=0;collapsible=0;dropTarget=0;fillColor=none;points=[[0,0.5],[1,0.5]];portConstraint=eastwest;strokeColor=#909090;fontSize=16;rounded=1;labelBackgroundColor=none;fontColor=#1A1A1A;" parent="yqe6dRdyDtMansCxqnrz-6" vertex="1">
          <mxGeometry y="60" width="230" height="30" as="geometry" />
        </mxCell>
        <mxCell id="yqe6dRdyDtMansCxqnrz-11" value="2" style="shape=partialRectangle;html=1;whiteSpace=wrap;connectable=0;fillColor=none;top=0;left=0;bottom=0;right=0;overflow=hidden;strokeColor=#909090;fontSize=16;rounded=1;labelBackgroundColor=none;fontColor=#1A1A1A;" parent="yqe6dRdyDtMansCxqnrz-10" vertex="1">
          <mxGeometry width="51" height="30" as="geometry">
            <mxRectangle width="51" height="30" as="alternateBounds" />
          </mxGeometry>
        </mxCell>
        <mxCell id="yqe6dRdyDtMansCxqnrz-12" value="Название" style="shape=partialRectangle;html=1;whiteSpace=wrap;connectable=0;fillColor=none;top=0;left=0;bottom=0;right=0;align=left;spacingLeft=6;overflow=hidden;strokeColor=#909090;fontSize=16;rounded=1;labelBackgroundColor=none;fontColor=#1A1A1A;" parent="yqe6dRdyDtMansCxqnrz-10" vertex="1">
          <mxGeometry x="51" width="179" height="30" as="geometry">
            <mxRectangle width="179" height="30" as="alternateBounds" />
          </mxGeometry>
        </mxCell>
        <mxCell id="yqe6dRdyDtMansCxqnrz-13" value="" style="shape=tableRow;horizontal=0;startSize=0;swimlaneHead=0;swimlaneBody=0;top=0;left=0;bottom=0;right=0;collapsible=0;dropTarget=0;fillColor=none;points=[[0,0.5],[1,0.5]];portConstraint=eastwest;strokeColor=#909090;fontSize=16;rounded=1;labelBackgroundColor=none;fontColor=#1A1A1A;" parent="yqe6dRdyDtMansCxqnrz-6" vertex="1">
          <mxGeometry y="90" width="230" height="30" as="geometry" />
        </mxCell>
        <mxCell id="yqe6dRdyDtMansCxqnrz-14" value="3" style="shape=partialRectangle;html=1;whiteSpace=wrap;connectable=0;fillColor=none;top=0;left=0;bottom=0;right=0;overflow=hidden;strokeColor=#909090;fontSize=16;rounded=1;labelBackgroundColor=none;fontColor=#1A1A1A;" parent="yqe6dRdyDtMansCxqnrz-13" vertex="1">
          <mxGeometry width="51" height="30" as="geometry">
            <mxRectangle width="51" height="30" as="alternateBounds" />
          </mxGeometry>
        </mxCell>
        <mxCell id="yqe6dRdyDtMansCxqnrz-15" value="Цена" style="shape=partialRectangle;html=1;whiteSpace=wrap;connectable=0;fillColor=none;top=0;left=0;bottom=0;right=0;align=left;spacingLeft=6;overflow=hidden;strokeColor=#909090;fontSize=16;rounded=1;labelBackgroundColor=none;fontColor=#1A1A1A;" parent="yqe6dRdyDtMansCxqnrz-13" vertex="1">
          <mxGeometry x="51" width="179" height="30" as="geometry">
            <mxRectangle width="179" height="30" as="alternateBounds" />
          </mxGeometry>
        </mxCell>
        <mxCell id="yqe6dRdyDtMansCxqnrz-32" value="" style="shape=tableRow;horizontal=0;startSize=0;swimlaneHead=0;swimlaneBody=0;top=0;left=0;bottom=0;right=0;collapsible=0;dropTarget=0;fillColor=none;points=[[0,0.5],[1,0.5]];portConstraint=eastwest;strokeColor=#909090;fontSize=16;rounded=1;labelBackgroundColor=none;fontColor=#1A1A1A;" parent="yqe6dRdyDtMansCxqnrz-6" vertex="1">
          <mxGeometry y="120" width="230" height="30" as="geometry" />
        </mxCell>
        <mxCell id="yqe6dRdyDtMansCxqnrz-33" value="4" style="shape=partialRectangle;html=1;whiteSpace=wrap;connectable=0;fillColor=none;top=0;left=0;bottom=0;right=0;overflow=hidden;strokeColor=#909090;fontSize=16;rounded=1;labelBackgroundColor=none;fontColor=#1A1A1A;" parent="yqe6dRdyDtMansCxqnrz-32" vertex="1">
          <mxGeometry width="51" height="30" as="geometry">
            <mxRectangle width="51" height="30" as="alternateBounds" />
          </mxGeometry>
        </mxCell>
        <mxCell id="yqe6dRdyDtMansCxqnrz-34" value="Фотографии" style="shape=partialRectangle;html=1;whiteSpace=wrap;connectable=0;fillColor=none;top=0;left=0;bottom=0;right=0;align=left;spacingLeft=6;overflow=hidden;strokeColor=#909090;fontSize=16;rounded=1;labelBackgroundColor=none;fontColor=#1A1A1A;" parent="yqe6dRdyDtMansCxqnrz-32" vertex="1">
          <mxGeometry x="51" width="179" height="30" as="geometry">
            <mxRectangle width="179" height="30" as="alternateBounds" />
          </mxGeometry>
        </mxCell>
        <mxCell id="uWYPwdV6PZLB3BTFIdGM-4" value="" style="shape=tableRow;horizontal=0;startSize=0;swimlaneHead=0;swimlaneBody=0;top=0;left=0;bottom=0;right=0;collapsible=0;dropTarget=0;fillColor=none;points=[[0,0.5],[1,0.5]];portConstraint=eastwest;strokeColor=#909090;fontSize=16;rounded=1;labelBackgroundColor=none;fontColor=#1A1A1A;" parent="yqe6dRdyDtMansCxqnrz-6" vertex="1">
          <mxGeometry y="150" width="230" height="30" as="geometry" />
        </mxCell>
        <mxCell id="uWYPwdV6PZLB3BTFIdGM-5" value="5" style="shape=partialRectangle;html=1;whiteSpace=wrap;connectable=0;fillColor=none;top=0;left=0;bottom=0;right=0;overflow=hidden;strokeColor=#909090;fontSize=16;rounded=1;labelBackgroundColor=none;fontColor=#1A1A1A;" parent="uWYPwdV6PZLB3BTFIdGM-4" vertex="1">
          <mxGeometry width="51" height="30" as="geometry">
            <mxRectangle width="51" height="30" as="alternateBounds" />
          </mxGeometry>
        </mxCell>
        <mxCell id="uWYPwdV6PZLB3BTFIdGM-6" value="Характеристики" style="shape=partialRectangle;html=1;whiteSpace=wrap;connectable=0;fillColor=none;top=0;left=0;bottom=0;right=0;align=left;spacingLeft=6;overflow=hidden;strokeColor=#909090;fontSize=16;rounded=1;labelBackgroundColor=none;fontColor=#1A1A1A;" parent="uWYPwdV6PZLB3BTFIdGM-4" vertex="1">
          <mxGeometry x="51" width="179" height="30" as="geometry">
            <mxRectangle width="179" height="30" as="alternateBounds" />
          </mxGeometry>
        </mxCell>
        <mxCell id="uWYPwdV6PZLB3BTFIdGM-16" value="" style="shape=tableRow;horizontal=0;startSize=0;swimlaneHead=0;swimlaneBody=0;top=0;left=0;bottom=0;right=0;collapsible=0;dropTarget=0;fillColor=none;points=[[0,0.5],[1,0.5]];portConstraint=eastwest;strokeColor=#909090;fontSize=16;rounded=1;labelBackgroundColor=none;fontColor=#1A1A1A;" parent="yqe6dRdyDtMansCxqnrz-6" vertex="1">
          <mxGeometry y="180" width="230" height="30" as="geometry" />
        </mxCell>
        <mxCell id="uWYPwdV6PZLB3BTFIdGM-17" value="6" style="shape=partialRectangle;html=1;whiteSpace=wrap;connectable=0;fillColor=none;top=0;left=0;bottom=0;right=0;overflow=hidden;strokeColor=#909090;fontSize=16;rounded=1;labelBackgroundColor=none;fontColor=#1A1A1A;" parent="uWYPwdV6PZLB3BTFIdGM-16" vertex="1">
          <mxGeometry width="51" height="30" as="geometry">
            <mxRectangle width="51" height="30" as="alternateBounds" />
          </mxGeometry>
        </mxCell>
        <mxCell id="uWYPwdV6PZLB3BTFIdGM-18" value="Кол-во просмотров" style="shape=partialRectangle;html=1;whiteSpace=wrap;connectable=0;fillColor=none;top=0;left=0;bottom=0;right=0;align=left;spacingLeft=6;overflow=hidden;strokeColor=#909090;fontSize=16;rounded=1;labelBackgroundColor=none;fontColor=#1A1A1A;" parent="uWYPwdV6PZLB3BTFIdGM-16" vertex="1">
          <mxGeometry x="51" width="179" height="30" as="geometry">
            <mxRectangle width="179" height="30" as="alternateBounds" />
          </mxGeometry>
        </mxCell>
        <mxCell id="yqe6dRdyDtMansCxqnrz-140" value="" style="shape=tableRow;horizontal=0;startSize=0;swimlaneHead=0;swimlaneBody=0;top=0;left=0;bottom=0;right=0;collapsible=0;dropTarget=0;fillColor=#a20025;points=[[0,0.5],[1,0.5]];portConstraint=eastwest;strokeColor=#6F0000;fontSize=16;rounded=1;labelBackgroundColor=none;sketch=1;curveFitting=1;jiggle=2;fontColor=#ffffff;" parent="yqe6dRdyDtMansCxqnrz-6" vertex="1">
          <mxGeometry y="210" width="230" height="30" as="geometry" />
        </mxCell>
        <mxCell id="yqe6dRdyDtMansCxqnrz-141" value="7" style="shape=partialRectangle;html=1;whiteSpace=wrap;connectable=0;fillColor=none;top=0;left=0;bottom=0;right=0;overflow=hidden;strokeColor=#909090;fontSize=16;rounded=1;labelBackgroundColor=none;fontColor=#1A1A1A;" parent="yqe6dRdyDtMansCxqnrz-140" vertex="1">
          <mxGeometry width="51" height="30" as="geometry">
            <mxRectangle width="51" height="30" as="alternateBounds" />
          </mxGeometry>
        </mxCell>
        <mxCell id="yqe6dRdyDtMansCxqnrz-142" value="Отзывы" style="shape=partialRectangle;html=1;whiteSpace=wrap;connectable=0;fillColor=none;top=0;left=0;bottom=0;right=0;align=left;spacingLeft=6;overflow=hidden;strokeColor=#909090;fontSize=16;rounded=1;labelBackgroundColor=none;fontColor=#1A1A1A;" parent="yqe6dRdyDtMansCxqnrz-140" vertex="1">
          <mxGeometry x="51" width="179" height="30" as="geometry">
            <mxRectangle width="179" height="30" as="alternateBounds" />
          </mxGeometry>
        </mxCell>
        <mxCell id="hEsK_yBPaeeMFCxo3sMm-4" value="" style="shape=tableRow;horizontal=0;startSize=0;swimlaneHead=0;swimlaneBody=0;top=0;left=0;bottom=0;right=0;collapsible=0;dropTarget=0;fillColor=none;points=[[0,0.5],[1,0.5]];portConstraint=eastwest;strokeColor=#909090;fontSize=16;rounded=1;labelBackgroundColor=none;fontColor=#1A1A1A;" parent="yqe6dRdyDtMansCxqnrz-6" vertex="1">
          <mxGeometry y="240" width="230" height="30" as="geometry" />
        </mxCell>
        <mxCell id="hEsK_yBPaeeMFCxo3sMm-5" value="8" style="shape=partialRectangle;html=1;whiteSpace=wrap;connectable=0;fillColor=none;top=0;left=0;bottom=0;right=0;overflow=hidden;strokeColor=#909090;fontSize=16;rounded=1;labelBackgroundColor=none;fontColor=#1A1A1A;" parent="hEsK_yBPaeeMFCxo3sMm-4" vertex="1">
          <mxGeometry width="51" height="30" as="geometry">
            <mxRectangle width="51" height="30" as="alternateBounds" />
          </mxGeometry>
        </mxCell>
        <mxCell id="hEsK_yBPaeeMFCxo3sMm-6" value="Дата добавления" style="shape=partialRectangle;html=1;whiteSpace=wrap;connectable=0;fillColor=none;top=0;left=0;bottom=0;right=0;align=left;spacingLeft=6;overflow=hidden;strokeColor=#909090;fontSize=16;rounded=1;labelBackgroundColor=none;fontColor=#1A1A1A;" parent="hEsK_yBPaeeMFCxo3sMm-4" vertex="1">
          <mxGeometry x="51" width="179" height="30" as="geometry">
            <mxRectangle width="179" height="30" as="alternateBounds" />
          </mxGeometry>
        </mxCell>
        <mxCell id="uWYPwdV6PZLB3BTFIdGM-1" value="" style="shape=tableRow;horizontal=0;startSize=0;swimlaneHead=0;swimlaneBody=0;top=0;left=0;bottom=0;right=0;collapsible=0;dropTarget=0;fillColor=none;points=[[0,0.5],[1,0.5]];portConstraint=eastwest;strokeColor=#909090;fontSize=16;rounded=1;labelBackgroundColor=none;fontColor=#1A1A1A;" parent="yqe6dRdyDtMansCxqnrz-6" vertex="1">
          <mxGeometry y="270" width="230" height="30" as="geometry" />
        </mxCell>
        <mxCell id="uWYPwdV6PZLB3BTFIdGM-2" value="9" style="shape=partialRectangle;html=1;whiteSpace=wrap;connectable=0;fillColor=none;top=0;left=0;bottom=0;right=0;overflow=hidden;strokeColor=#909090;fontSize=16;rounded=1;labelBackgroundColor=none;fontColor=#1A1A1A;" parent="uWYPwdV6PZLB3BTFIdGM-1" vertex="1">
          <mxGeometry width="51" height="30" as="geometry">
            <mxRectangle width="51" height="30" as="alternateBounds" />
          </mxGeometry>
        </mxCell>
        <mxCell id="uWYPwdV6PZLB3BTFIdGM-3" value="Описание" style="shape=partialRectangle;html=1;whiteSpace=wrap;connectable=0;fillColor=none;top=0;left=0;bottom=0;right=0;align=left;spacingLeft=6;overflow=hidden;strokeColor=#909090;fontSize=16;rounded=1;labelBackgroundColor=none;fontColor=#1A1A1A;" parent="uWYPwdV6PZLB3BTFIdGM-1" vertex="1">
          <mxGeometry x="51" width="179" height="30" as="geometry">
            <mxRectangle width="179" height="30" as="alternateBounds" />
          </mxGeometry>
        </mxCell>
        <mxCell id="yqe6dRdyDtMansCxqnrz-38" value="Пользователь" style="shape=table;startSize=30;container=1;collapsible=0;childLayout=tableLayout;fixedRows=1;rowLines=0;fontStyle=0;strokeColor=#909090;fontSize=16;align=center;rounded=1;labelBackgroundColor=none;fillColor=#F5AB50;fontColor=#1A1A1A;" parent="1" vertex="1">
          <mxGeometry x="270" y="280" width="230" height="360" as="geometry" />
        </mxCell>
        <mxCell id="yqe6dRdyDtMansCxqnrz-39" value="" style="shape=tableRow;horizontal=0;startSize=0;swimlaneHead=0;swimlaneBody=0;top=0;left=0;bottom=0;right=0;collapsible=0;dropTarget=0;fillColor=none;points=[[0,0.5],[1,0.5]];portConstraint=eastwest;strokeColor=#909090;fontSize=16;rounded=1;labelBackgroundColor=none;fontColor=#1A1A1A;" parent="yqe6dRdyDtMansCxqnrz-38" vertex="1">
          <mxGeometry y="30" width="230" height="30" as="geometry" />
        </mxCell>
        <mxCell id="yqe6dRdyDtMansCxqnrz-40" value="1" style="shape=partialRectangle;html=1;whiteSpace=wrap;connectable=0;fillColor=none;top=0;left=0;bottom=0;right=0;overflow=hidden;pointerEvents=1;strokeColor=#909090;fontSize=16;rounded=1;labelBackgroundColor=none;fontColor=#1A1A1A;" parent="yqe6dRdyDtMansCxqnrz-39" vertex="1">
          <mxGeometry width="51" height="30" as="geometry">
            <mxRectangle width="51" height="30" as="alternateBounds" />
          </mxGeometry>
        </mxCell>
        <mxCell id="yqe6dRdyDtMansCxqnrz-41" value="id" style="shape=partialRectangle;html=1;whiteSpace=wrap;connectable=0;fillColor=none;top=0;left=0;bottom=0;right=0;align=left;spacingLeft=6;overflow=hidden;strokeColor=#909090;fontSize=16;rounded=1;labelBackgroundColor=none;fontColor=#1A1A1A;" parent="yqe6dRdyDtMansCxqnrz-39" vertex="1">
          <mxGeometry x="51" width="179" height="30" as="geometry">
            <mxRectangle width="179" height="30" as="alternateBounds" />
          </mxGeometry>
        </mxCell>
        <mxCell id="yqe6dRdyDtMansCxqnrz-58" value="" style="shape=tableRow;horizontal=0;startSize=0;swimlaneHead=0;swimlaneBody=0;top=0;left=0;bottom=0;right=0;collapsible=0;dropTarget=0;fillColor=none;points=[[0,0.5],[1,0.5]];portConstraint=eastwest;strokeColor=#909090;fontSize=16;rounded=1;labelBackgroundColor=none;fontColor=#1A1A1A;" parent="yqe6dRdyDtMansCxqnrz-38" vertex="1">
          <mxGeometry y="60" width="230" height="30" as="geometry" />
        </mxCell>
        <mxCell id="yqe6dRdyDtMansCxqnrz-59" value="2" style="shape=partialRectangle;html=1;whiteSpace=wrap;connectable=0;fillColor=none;top=0;left=0;bottom=0;right=0;overflow=hidden;strokeColor=#909090;fontSize=16;rounded=1;labelBackgroundColor=none;fontColor=#1A1A1A;" parent="yqe6dRdyDtMansCxqnrz-58" vertex="1">
          <mxGeometry width="51" height="30" as="geometry">
            <mxRectangle width="51" height="30" as="alternateBounds" />
          </mxGeometry>
        </mxCell>
        <mxCell id="yqe6dRdyDtMansCxqnrz-60" value="Имя" style="shape=partialRectangle;html=1;whiteSpace=wrap;connectable=0;fillColor=none;top=0;left=0;bottom=0;right=0;align=left;spacingLeft=6;overflow=hidden;strokeColor=#909090;fontSize=16;rounded=1;labelBackgroundColor=none;fontColor=#1A1A1A;" parent="yqe6dRdyDtMansCxqnrz-58" vertex="1">
          <mxGeometry x="51" width="179" height="30" as="geometry">
            <mxRectangle width="179" height="30" as="alternateBounds" />
          </mxGeometry>
        </mxCell>
        <mxCell id="yqe6dRdyDtMansCxqnrz-80" value="" style="shape=tableRow;horizontal=0;startSize=0;swimlaneHead=0;swimlaneBody=0;top=0;left=0;bottom=0;right=0;collapsible=0;dropTarget=0;fillColor=none;points=[[0,0.5],[1,0.5]];portConstraint=eastwest;strokeColor=#909090;fontSize=16;rounded=1;labelBackgroundColor=none;fontColor=#1A1A1A;" parent="yqe6dRdyDtMansCxqnrz-38" vertex="1">
          <mxGeometry y="90" width="230" height="30" as="geometry" />
        </mxCell>
        <mxCell id="yqe6dRdyDtMansCxqnrz-81" value="3" style="shape=partialRectangle;html=1;whiteSpace=wrap;connectable=0;fillColor=none;top=0;left=0;bottom=0;right=0;overflow=hidden;strokeColor=#909090;fontSize=16;rounded=1;labelBackgroundColor=none;fontColor=#1A1A1A;" parent="yqe6dRdyDtMansCxqnrz-80" vertex="1">
          <mxGeometry width="51" height="30" as="geometry">
            <mxRectangle width="51" height="30" as="alternateBounds" />
          </mxGeometry>
        </mxCell>
        <mxCell id="yqe6dRdyDtMansCxqnrz-82" value="Пароль" style="shape=partialRectangle;html=1;whiteSpace=wrap;connectable=0;fillColor=none;top=0;left=0;bottom=0;right=0;align=left;spacingLeft=6;overflow=hidden;strokeColor=#909090;fontSize=16;rounded=1;labelBackgroundColor=none;fontColor=#1A1A1A;" parent="yqe6dRdyDtMansCxqnrz-80" vertex="1">
          <mxGeometry x="51" width="179" height="30" as="geometry">
            <mxRectangle width="179" height="30" as="alternateBounds" />
          </mxGeometry>
        </mxCell>
        <mxCell id="yqe6dRdyDtMansCxqnrz-42" value="" style="shape=tableRow;horizontal=0;startSize=0;swimlaneHead=0;swimlaneBody=0;top=0;left=0;bottom=0;right=0;collapsible=0;dropTarget=0;fillColor=none;points=[[0,0.5],[1,0.5]];portConstraint=eastwest;strokeColor=#909090;fontSize=16;rounded=1;labelBackgroundColor=none;fontColor=#1A1A1A;" parent="yqe6dRdyDtMansCxqnrz-38" vertex="1">
          <mxGeometry y="120" width="230" height="30" as="geometry" />
        </mxCell>
        <mxCell id="yqe6dRdyDtMansCxqnrz-43" value="4" style="shape=partialRectangle;html=1;whiteSpace=wrap;connectable=0;fillColor=none;top=0;left=0;bottom=0;right=0;overflow=hidden;strokeColor=#909090;fontSize=16;rounded=1;labelBackgroundColor=none;fontColor=#1A1A1A;" parent="yqe6dRdyDtMansCxqnrz-42" vertex="1">
          <mxGeometry width="51" height="30" as="geometry">
            <mxRectangle width="51" height="30" as="alternateBounds" />
          </mxGeometry>
        </mxCell>
        <mxCell id="yqe6dRdyDtMansCxqnrz-44" value="Почта" style="shape=partialRectangle;html=1;whiteSpace=wrap;connectable=0;fillColor=none;top=0;left=0;bottom=0;right=0;align=left;spacingLeft=6;overflow=hidden;strokeColor=#909090;fontSize=16;rounded=1;labelBackgroundColor=none;fontColor=#1A1A1A;" parent="yqe6dRdyDtMansCxqnrz-42" vertex="1">
          <mxGeometry x="51" width="179" height="30" as="geometry">
            <mxRectangle width="179" height="30" as="alternateBounds" />
          </mxGeometry>
        </mxCell>
        <mxCell id="yqe6dRdyDtMansCxqnrz-45" value="" style="shape=tableRow;horizontal=0;startSize=0;swimlaneHead=0;swimlaneBody=0;top=0;left=0;bottom=0;right=0;collapsible=0;dropTarget=0;fillColor=none;points=[[0,0.5],[1,0.5]];portConstraint=eastwest;strokeColor=#909090;fontSize=16;rounded=1;labelBackgroundColor=none;fontColor=#1A1A1A;" parent="yqe6dRdyDtMansCxqnrz-38" vertex="1">
          <mxGeometry y="150" width="230" height="30" as="geometry" />
        </mxCell>
        <mxCell id="yqe6dRdyDtMansCxqnrz-46" value="5" style="shape=partialRectangle;html=1;whiteSpace=wrap;connectable=0;fillColor=none;top=0;left=0;bottom=0;right=0;overflow=hidden;strokeColor=#909090;fontSize=16;rounded=1;labelBackgroundColor=none;fontColor=#1A1A1A;" parent="yqe6dRdyDtMansCxqnrz-45" vertex="1">
          <mxGeometry width="51" height="30" as="geometry">
            <mxRectangle width="51" height="30" as="alternateBounds" />
          </mxGeometry>
        </mxCell>
        <mxCell id="yqe6dRdyDtMansCxqnrz-47" value="Телефон" style="shape=partialRectangle;html=1;whiteSpace=wrap;connectable=0;fillColor=none;top=0;left=0;bottom=0;right=0;align=left;spacingLeft=6;overflow=hidden;strokeColor=#909090;fontSize=16;rounded=1;labelBackgroundColor=none;fontColor=#1A1A1A;" parent="yqe6dRdyDtMansCxqnrz-45" vertex="1">
          <mxGeometry x="51" width="179" height="30" as="geometry">
            <mxRectangle width="179" height="30" as="alternateBounds" />
          </mxGeometry>
        </mxCell>
        <mxCell id="yqe6dRdyDtMansCxqnrz-77" value="" style="shape=tableRow;horizontal=0;startSize=0;swimlaneHead=0;swimlaneBody=0;top=0;left=0;bottom=0;right=0;collapsible=0;dropTarget=0;fillColor=none;points=[[0,0.5],[1,0.5]];portConstraint=eastwest;strokeColor=#909090;fontSize=16;rounded=1;labelBackgroundColor=none;fontColor=#1A1A1A;" parent="yqe6dRdyDtMansCxqnrz-38" vertex="1">
          <mxGeometry y="180" width="230" height="30" as="geometry" />
        </mxCell>
        <mxCell id="yqe6dRdyDtMansCxqnrz-78" value="6" style="shape=partialRectangle;html=1;whiteSpace=wrap;connectable=0;fillColor=none;top=0;left=0;bottom=0;right=0;overflow=hidden;strokeColor=#909090;fontSize=16;rounded=1;labelBackgroundColor=none;fontColor=#1A1A1A;" parent="yqe6dRdyDtMansCxqnrz-77" vertex="1">
          <mxGeometry width="51" height="30" as="geometry">
            <mxRectangle width="51" height="30" as="alternateBounds" />
          </mxGeometry>
        </mxCell>
        <mxCell id="yqe6dRdyDtMansCxqnrz-79" value="Корзина" style="shape=partialRectangle;html=1;whiteSpace=wrap;connectable=0;fillColor=none;top=0;left=0;bottom=0;right=0;align=left;spacingLeft=6;overflow=hidden;strokeColor=#909090;fontSize=16;rounded=1;labelBackgroundColor=none;fontColor=#1A1A1A;" parent="yqe6dRdyDtMansCxqnrz-77" vertex="1">
          <mxGeometry x="51" width="179" height="30" as="geometry">
            <mxRectangle width="179" height="30" as="alternateBounds" />
          </mxGeometry>
        </mxCell>
        <mxCell id="yqe6dRdyDtMansCxqnrz-121" value="" style="shape=tableRow;horizontal=0;startSize=0;swimlaneHead=0;swimlaneBody=0;top=0;left=0;bottom=0;right=0;collapsible=0;dropTarget=0;fillColor=none;points=[[0,0.5],[1,0.5]];portConstraint=eastwest;strokeColor=#909090;fontSize=16;rounded=1;labelBackgroundColor=none;fontColor=#1A1A1A;" parent="yqe6dRdyDtMansCxqnrz-38" vertex="1">
          <mxGeometry y="210" width="230" height="30" as="geometry" />
        </mxCell>
        <mxCell id="yqe6dRdyDtMansCxqnrz-122" value="7" style="shape=partialRectangle;html=1;whiteSpace=wrap;connectable=0;fillColor=none;top=0;left=0;bottom=0;right=0;overflow=hidden;strokeColor=#909090;fontSize=16;rounded=1;labelBackgroundColor=none;fontColor=#1A1A1A;" parent="yqe6dRdyDtMansCxqnrz-121" vertex="1">
          <mxGeometry width="51" height="30" as="geometry">
            <mxRectangle width="51" height="30" as="alternateBounds" />
          </mxGeometry>
        </mxCell>
        <mxCell id="yqe6dRdyDtMansCxqnrz-123" value="Адрес" style="shape=partialRectangle;html=1;whiteSpace=wrap;connectable=0;fillColor=none;top=0;left=0;bottom=0;right=0;align=left;spacingLeft=6;overflow=hidden;strokeColor=#909090;fontSize=16;rounded=1;labelBackgroundColor=none;fontColor=#1A1A1A;" parent="yqe6dRdyDtMansCxqnrz-121" vertex="1">
          <mxGeometry x="51" width="179" height="30" as="geometry">
            <mxRectangle width="179" height="30" as="alternateBounds" />
          </mxGeometry>
        </mxCell>
        <mxCell id="yqe6dRdyDtMansCxqnrz-188" value="" style="shape=tableRow;horizontal=0;startSize=0;swimlaneHead=0;swimlaneBody=0;top=0;left=0;bottom=0;right=0;collapsible=0;dropTarget=0;fillColor=#a20025;points=[[0,0.5],[1,0.5]];portConstraint=eastwest;strokeColor=#6F0000;fontSize=16;rounded=1;labelBackgroundColor=none;fontColor=#ffffff;sketch=1;curveFitting=1;jiggle=2;" parent="yqe6dRdyDtMansCxqnrz-38" vertex="1">
          <mxGeometry y="240" width="230" height="30" as="geometry" />
        </mxCell>
        <mxCell id="yqe6dRdyDtMansCxqnrz-189" value="8" style="shape=partialRectangle;html=1;whiteSpace=wrap;connectable=0;fillColor=none;top=0;left=0;bottom=0;right=0;overflow=hidden;strokeColor=#909090;fontSize=16;rounded=1;labelBackgroundColor=none;fontColor=#1A1A1A;" parent="yqe6dRdyDtMansCxqnrz-188" vertex="1">
          <mxGeometry width="51" height="30" as="geometry">
            <mxRectangle width="51" height="30" as="alternateBounds" />
          </mxGeometry>
        </mxCell>
        <mxCell id="yqe6dRdyDtMansCxqnrz-190" value="Отзывы" style="shape=partialRectangle;html=1;whiteSpace=wrap;connectable=0;fillColor=none;top=0;left=0;bottom=0;right=0;align=left;spacingLeft=6;overflow=hidden;strokeColor=#909090;fontSize=16;rounded=1;labelBackgroundColor=none;fontColor=#1A1A1A;" parent="yqe6dRdyDtMansCxqnrz-188" vertex="1">
          <mxGeometry x="51" width="179" height="30" as="geometry">
            <mxRectangle width="179" height="30" as="alternateBounds" />
          </mxGeometry>
        </mxCell>
        <mxCell id="hEsK_yBPaeeMFCxo3sMm-1" value="" style="shape=tableRow;horizontal=0;startSize=0;swimlaneHead=0;swimlaneBody=0;top=0;left=0;bottom=0;right=0;collapsible=0;dropTarget=0;fillColor=none;points=[[0,0.5],[1,0.5]];portConstraint=eastwest;strokeColor=#909090;fontSize=16;rounded=1;labelBackgroundColor=none;fontColor=#1A1A1A;" parent="yqe6dRdyDtMansCxqnrz-38" vertex="1">
          <mxGeometry y="270" width="230" height="30" as="geometry" />
        </mxCell>
        <mxCell id="hEsK_yBPaeeMFCxo3sMm-2" value="9" style="shape=partialRectangle;html=1;whiteSpace=wrap;connectable=0;fillColor=none;top=0;left=0;bottom=0;right=0;overflow=hidden;strokeColor=#909090;fontSize=16;rounded=1;labelBackgroundColor=none;fontColor=#1A1A1A;" parent="hEsK_yBPaeeMFCxo3sMm-1" vertex="1">
          <mxGeometry width="51" height="30" as="geometry">
            <mxRectangle width="51" height="30" as="alternateBounds" />
          </mxGeometry>
        </mxCell>
        <mxCell id="hEsK_yBPaeeMFCxo3sMm-3" value="Роль" style="shape=partialRectangle;html=1;whiteSpace=wrap;connectable=0;fillColor=none;top=0;left=0;bottom=0;right=0;align=left;spacingLeft=6;overflow=hidden;strokeColor=#909090;fontSize=16;rounded=1;labelBackgroundColor=none;fontColor=#1A1A1A;" parent="hEsK_yBPaeeMFCxo3sMm-1" vertex="1">
          <mxGeometry x="51" width="179" height="30" as="geometry">
            <mxRectangle width="179" height="30" as="alternateBounds" />
          </mxGeometry>
        </mxCell>
        <mxCell id="hEsK_yBPaeeMFCxo3sMm-7" value="" style="shape=tableRow;horizontal=0;startSize=0;swimlaneHead=0;swimlaneBody=0;top=0;left=0;bottom=0;right=0;collapsible=0;dropTarget=0;fillColor=none;points=[[0,0.5],[1,0.5]];portConstraint=eastwest;strokeColor=#909090;fontSize=16;rounded=1;labelBackgroundColor=none;fontColor=#1A1A1A;" parent="yqe6dRdyDtMansCxqnrz-38" vertex="1">
          <mxGeometry y="300" width="230" height="30" as="geometry" />
        </mxCell>
        <mxCell id="hEsK_yBPaeeMFCxo3sMm-8" value="10" style="shape=partialRectangle;html=1;whiteSpace=wrap;connectable=0;fillColor=none;top=0;left=0;bottom=0;right=0;overflow=hidden;strokeColor=#909090;fontSize=16;rounded=1;labelBackgroundColor=none;fontColor=#1A1A1A;" parent="hEsK_yBPaeeMFCxo3sMm-7" vertex="1">
          <mxGeometry width="51" height="30" as="geometry">
            <mxRectangle width="51" height="30" as="alternateBounds" />
          </mxGeometry>
        </mxCell>
        <mxCell id="hEsK_yBPaeeMFCxo3sMm-9" value="История покупок" style="shape=partialRectangle;html=1;whiteSpace=wrap;connectable=0;fillColor=none;top=0;left=0;bottom=0;right=0;align=left;spacingLeft=6;overflow=hidden;strokeColor=#909090;fontSize=16;rounded=1;labelBackgroundColor=none;fontColor=#1A1A1A;" parent="hEsK_yBPaeeMFCxo3sMm-7" vertex="1">
          <mxGeometry x="51" width="179" height="30" as="geometry">
            <mxRectangle width="179" height="30" as="alternateBounds" />
          </mxGeometry>
        </mxCell>
        <mxCell id="uWYPwdV6PZLB3BTFIdGM-7" value="" style="shape=tableRow;horizontal=0;startSize=0;swimlaneHead=0;swimlaneBody=0;top=0;left=0;bottom=0;right=0;collapsible=0;dropTarget=0;fillColor=none;points=[[0,0.5],[1,0.5]];portConstraint=eastwest;strokeColor=#909090;fontSize=16;rounded=1;labelBackgroundColor=none;fontColor=#1A1A1A;" parent="yqe6dRdyDtMansCxqnrz-38" vertex="1">
          <mxGeometry y="330" width="230" height="30" as="geometry" />
        </mxCell>
        <mxCell id="uWYPwdV6PZLB3BTFIdGM-8" value="11" style="shape=partialRectangle;html=1;whiteSpace=wrap;connectable=0;fillColor=none;top=0;left=0;bottom=0;right=0;overflow=hidden;strokeColor=#909090;fontSize=16;rounded=1;labelBackgroundColor=none;fontColor=#1A1A1A;" parent="uWYPwdV6PZLB3BTFIdGM-7" vertex="1">
          <mxGeometry width="51" height="30" as="geometry">
            <mxRectangle width="51" height="30" as="alternateBounds" />
          </mxGeometry>
        </mxCell>
        <mxCell id="uWYPwdV6PZLB3BTFIdGM-9" value="История просмотров" style="shape=partialRectangle;html=1;whiteSpace=wrap;connectable=0;fillColor=none;top=0;left=0;bottom=0;right=0;align=left;spacingLeft=6;overflow=hidden;strokeColor=#909090;fontSize=16;rounded=1;labelBackgroundColor=none;fontColor=#1A1A1A;" parent="uWYPwdV6PZLB3BTFIdGM-7" vertex="1">
          <mxGeometry x="51" width="179" height="30" as="geometry">
            <mxRectangle width="179" height="30" as="alternateBounds" />
          </mxGeometry>
        </mxCell>
        <mxCell id="yqe6dRdyDtMansCxqnrz-127" style="edgeStyle=orthogonalEdgeStyle;rounded=1;orthogonalLoop=1;jettySize=auto;html=1;entryX=0;entryY=0.5;entryDx=0;entryDy=0;labelBackgroundColor=none;strokeColor=#182E3E;fontColor=default;" parent="1" source="yqe6dRdyDtMansCxqnrz-77" target="yqe6dRdyDtMansCxqnrz-7" edge="1">
          <mxGeometry relative="1" as="geometry">
            <Array as="points">
              <mxPoint x="560" y="475" />
              <mxPoint x="560" y="555" />
            </Array>
          </mxGeometry>
        </mxCell>
        <mxCell id="uWYPwdV6PZLB3BTFIdGM-15" value="1000" style="edgeLabel;html=1;align=center;verticalAlign=middle;resizable=0;points=[];" parent="yqe6dRdyDtMansCxqnrz-127" vertex="1" connectable="0">
          <mxGeometry x="-0.7263" y="-3" relative="1" as="geometry">
            <mxPoint as="offset" />
          </mxGeometry>
        </mxCell>
        <mxCell id="yqe6dRdyDtMansCxqnrz-128" value="Отзыв" style="shape=table;startSize=30;container=1;collapsible=0;childLayout=tableLayout;fixedRows=1;rowLines=0;fontStyle=0;strokeColor=#909090;fontSize=16;fontColor=#1A1A1A;fillColor=#F5AB50;rounded=1;labelBackgroundColor=none;sketch=1;curveFitting=1;jiggle=2;" parent="1" vertex="1">
          <mxGeometry x="680" y="170" width="230" height="240" as="geometry" />
        </mxCell>
        <mxCell id="yqe6dRdyDtMansCxqnrz-129" value="" style="shape=tableRow;horizontal=0;startSize=0;swimlaneHead=0;swimlaneBody=0;top=0;left=0;bottom=0;right=0;collapsible=0;dropTarget=0;fillColor=none;points=[[0,0.5],[1,0.5]];portConstraint=eastwest;strokeColor=#909090;fontSize=16;fontColor=#1A1A1A;rounded=1;labelBackgroundColor=none;sketch=1;curveFitting=1;jiggle=2;" parent="yqe6dRdyDtMansCxqnrz-128" vertex="1">
          <mxGeometry y="30" width="230" height="30" as="geometry" />
        </mxCell>
        <mxCell id="yqe6dRdyDtMansCxqnrz-130" value="1" style="shape=partialRectangle;html=1;whiteSpace=wrap;connectable=0;fillColor=none;top=0;left=0;bottom=0;right=0;overflow=hidden;pointerEvents=1;strokeColor=#909090;fontSize=16;fontColor=#1A1A1A;rounded=1;labelBackgroundColor=none;sketch=1;curveFitting=1;jiggle=2;" parent="yqe6dRdyDtMansCxqnrz-129" vertex="1">
          <mxGeometry width="40" height="30" as="geometry">
            <mxRectangle width="40" height="30" as="alternateBounds" />
          </mxGeometry>
        </mxCell>
        <mxCell id="yqe6dRdyDtMansCxqnrz-131" value="id" style="shape=partialRectangle;html=1;whiteSpace=wrap;connectable=0;fillColor=none;top=0;left=0;bottom=0;right=0;align=left;spacingLeft=6;overflow=hidden;strokeColor=#909090;fontSize=16;fontColor=#1A1A1A;rounded=1;labelBackgroundColor=none;sketch=1;curveFitting=1;jiggle=2;" parent="yqe6dRdyDtMansCxqnrz-129" vertex="1">
          <mxGeometry x="40" width="190" height="30" as="geometry">
            <mxRectangle width="190" height="30" as="alternateBounds" />
          </mxGeometry>
        </mxCell>
        <mxCell id="yqe6dRdyDtMansCxqnrz-132" value="" style="shape=tableRow;horizontal=0;startSize=0;swimlaneHead=0;swimlaneBody=0;top=0;left=0;bottom=0;right=0;collapsible=0;dropTarget=0;fillColor=none;points=[[0,0.5],[1,0.5]];portConstraint=eastwest;strokeColor=#909090;fontSize=16;fontColor=#1A1A1A;rounded=1;labelBackgroundColor=none;sketch=1;curveFitting=1;jiggle=2;" parent="yqe6dRdyDtMansCxqnrz-128" vertex="1">
          <mxGeometry y="60" width="230" height="30" as="geometry" />
        </mxCell>
        <mxCell id="yqe6dRdyDtMansCxqnrz-133" value="2" style="shape=partialRectangle;html=1;whiteSpace=wrap;connectable=0;fillColor=none;top=0;left=0;bottom=0;right=0;overflow=hidden;strokeColor=#909090;fontSize=16;fontColor=#1A1A1A;rounded=1;labelBackgroundColor=none;sketch=1;curveFitting=1;jiggle=2;" parent="yqe6dRdyDtMansCxqnrz-132" vertex="1">
          <mxGeometry width="40" height="30" as="geometry">
            <mxRectangle width="40" height="30" as="alternateBounds" />
          </mxGeometry>
        </mxCell>
        <mxCell id="yqe6dRdyDtMansCxqnrz-134" value="Пользователь" style="shape=partialRectangle;html=1;whiteSpace=wrap;connectable=0;fillColor=none;top=0;left=0;bottom=0;right=0;align=left;spacingLeft=6;overflow=hidden;strokeColor=#909090;fontSize=16;fontColor=#1A1A1A;rounded=1;labelBackgroundColor=none;sketch=1;curveFitting=1;jiggle=2;" parent="yqe6dRdyDtMansCxqnrz-132" vertex="1">
          <mxGeometry x="40" width="190" height="30" as="geometry">
            <mxRectangle width="190" height="30" as="alternateBounds" />
          </mxGeometry>
        </mxCell>
        <mxCell id="yqe6dRdyDtMansCxqnrz-135" value="" style="shape=tableRow;horizontal=0;startSize=0;swimlaneHead=0;swimlaneBody=0;top=0;left=0;bottom=0;right=0;collapsible=0;dropTarget=0;fillColor=none;points=[[0,0.5],[1,0.5]];portConstraint=eastwest;strokeColor=#909090;fontSize=16;fontColor=#1A1A1A;rounded=1;labelBackgroundColor=none;sketch=1;curveFitting=1;jiggle=2;" parent="yqe6dRdyDtMansCxqnrz-128" vertex="1">
          <mxGeometry y="90" width="230" height="30" as="geometry" />
        </mxCell>
        <mxCell id="yqe6dRdyDtMansCxqnrz-136" value="3" style="shape=partialRectangle;html=1;whiteSpace=wrap;connectable=0;fillColor=none;top=0;left=0;bottom=0;right=0;overflow=hidden;strokeColor=#909090;fontSize=16;fontColor=#1A1A1A;rounded=1;labelBackgroundColor=none;sketch=1;curveFitting=1;jiggle=2;" parent="yqe6dRdyDtMansCxqnrz-135" vertex="1">
          <mxGeometry width="40" height="30" as="geometry">
            <mxRectangle width="40" height="30" as="alternateBounds" />
          </mxGeometry>
        </mxCell>
        <mxCell id="yqe6dRdyDtMansCxqnrz-137" value="Кол-во звёзд" style="shape=partialRectangle;html=1;whiteSpace=wrap;connectable=0;fillColor=none;top=0;left=0;bottom=0;right=0;align=left;spacingLeft=6;overflow=hidden;strokeColor=#909090;fontSize=16;fontColor=#1A1A1A;rounded=1;labelBackgroundColor=none;sketch=1;curveFitting=1;jiggle=2;" parent="yqe6dRdyDtMansCxqnrz-135" vertex="1">
          <mxGeometry x="40" width="190" height="30" as="geometry">
            <mxRectangle width="190" height="30" as="alternateBounds" />
          </mxGeometry>
        </mxCell>
        <mxCell id="yqe6dRdyDtMansCxqnrz-146" value="" style="shape=tableRow;horizontal=0;startSize=0;swimlaneHead=0;swimlaneBody=0;top=0;left=0;bottom=0;right=0;collapsible=0;dropTarget=0;fillColor=none;points=[[0,0.5],[1,0.5]];portConstraint=eastwest;strokeColor=#909090;fontSize=16;fontColor=#1A1A1A;rounded=1;labelBackgroundColor=none;sketch=1;curveFitting=1;jiggle=2;" parent="yqe6dRdyDtMansCxqnrz-128" vertex="1">
          <mxGeometry y="120" width="230" height="30" as="geometry" />
        </mxCell>
        <mxCell id="yqe6dRdyDtMansCxqnrz-147" value="4" style="shape=partialRectangle;html=1;whiteSpace=wrap;connectable=0;fillColor=none;top=0;left=0;bottom=0;right=0;overflow=hidden;strokeColor=#909090;fontSize=16;fontColor=#1A1A1A;rounded=1;labelBackgroundColor=none;sketch=1;curveFitting=1;jiggle=2;" parent="yqe6dRdyDtMansCxqnrz-146" vertex="1">
          <mxGeometry width="40" height="30" as="geometry">
            <mxRectangle width="40" height="30" as="alternateBounds" />
          </mxGeometry>
        </mxCell>
        <mxCell id="yqe6dRdyDtMansCxqnrz-148" value="Текст" style="shape=partialRectangle;html=1;whiteSpace=wrap;connectable=0;fillColor=none;top=0;left=0;bottom=0;right=0;align=left;spacingLeft=6;overflow=hidden;strokeColor=#909090;fontSize=16;fontColor=#1A1A1A;rounded=1;labelBackgroundColor=none;sketch=1;curveFitting=1;jiggle=2;" parent="yqe6dRdyDtMansCxqnrz-146" vertex="1">
          <mxGeometry x="40" width="190" height="30" as="geometry">
            <mxRectangle width="190" height="30" as="alternateBounds" />
          </mxGeometry>
        </mxCell>
        <mxCell id="yqe6dRdyDtMansCxqnrz-149" value="" style="shape=tableRow;horizontal=0;startSize=0;swimlaneHead=0;swimlaneBody=0;top=0;left=0;bottom=0;right=0;collapsible=0;dropTarget=0;fillColor=none;points=[[0,0.5],[1,0.5]];portConstraint=eastwest;strokeColor=#909090;fontSize=16;fontColor=#1A1A1A;rounded=1;labelBackgroundColor=none;sketch=1;curveFitting=1;jiggle=2;" parent="yqe6dRdyDtMansCxqnrz-128" vertex="1">
          <mxGeometry y="150" width="230" height="30" as="geometry" />
        </mxCell>
        <mxCell id="yqe6dRdyDtMansCxqnrz-150" value="5" style="shape=partialRectangle;html=1;whiteSpace=wrap;connectable=0;fillColor=none;top=0;left=0;bottom=0;right=0;overflow=hidden;strokeColor=#909090;fontSize=16;fontColor=#1A1A1A;rounded=1;labelBackgroundColor=none;sketch=1;curveFitting=1;jiggle=2;" parent="yqe6dRdyDtMansCxqnrz-149" vertex="1">
          <mxGeometry width="40" height="30" as="geometry">
            <mxRectangle width="40" height="30" as="alternateBounds" />
          </mxGeometry>
        </mxCell>
        <mxCell id="yqe6dRdyDtMansCxqnrz-151" value="Время использования" style="shape=partialRectangle;html=1;whiteSpace=wrap;connectable=0;fillColor=none;top=0;left=0;bottom=0;right=0;align=left;spacingLeft=6;overflow=hidden;strokeColor=#909090;fontSize=16;fontColor=#1A1A1A;rounded=1;labelBackgroundColor=none;sketch=1;curveFitting=1;jiggle=2;" parent="yqe6dRdyDtMansCxqnrz-149" vertex="1">
          <mxGeometry x="40" width="190" height="30" as="geometry">
            <mxRectangle width="190" height="30" as="alternateBounds" />
          </mxGeometry>
        </mxCell>
        <mxCell id="yqe6dRdyDtMansCxqnrz-152" value="" style="shape=tableRow;horizontal=0;startSize=0;swimlaneHead=0;swimlaneBody=0;top=0;left=0;bottom=0;right=0;collapsible=0;dropTarget=0;fillColor=none;points=[[0,0.5],[1,0.5]];portConstraint=eastwest;strokeColor=#909090;fontSize=16;fontColor=#1A1A1A;rounded=1;labelBackgroundColor=none;sketch=1;curveFitting=1;jiggle=2;" parent="yqe6dRdyDtMansCxqnrz-128" vertex="1">
          <mxGeometry y="180" width="230" height="30" as="geometry" />
        </mxCell>
        <mxCell id="yqe6dRdyDtMansCxqnrz-153" value="6" style="shape=partialRectangle;html=1;whiteSpace=wrap;connectable=0;fillColor=none;top=0;left=0;bottom=0;right=0;overflow=hidden;strokeColor=#909090;fontSize=16;fontColor=#1A1A1A;rounded=1;labelBackgroundColor=none;sketch=1;curveFitting=1;jiggle=2;" parent="yqe6dRdyDtMansCxqnrz-152" vertex="1">
          <mxGeometry width="40" height="30" as="geometry">
            <mxRectangle width="40" height="30" as="alternateBounds" />
          </mxGeometry>
        </mxCell>
        <mxCell id="yqe6dRdyDtMansCxqnrz-154" value="Дата создания" style="shape=partialRectangle;html=1;whiteSpace=wrap;connectable=0;fillColor=none;top=0;left=0;bottom=0;right=0;align=left;spacingLeft=6;overflow=hidden;strokeColor=#909090;fontSize=16;fontColor=#1A1A1A;rounded=1;labelBackgroundColor=none;sketch=1;curveFitting=1;jiggle=2;" parent="yqe6dRdyDtMansCxqnrz-152" vertex="1">
          <mxGeometry x="40" width="190" height="30" as="geometry">
            <mxRectangle width="190" height="30" as="alternateBounds" />
          </mxGeometry>
        </mxCell>
        <mxCell id="yqe6dRdyDtMansCxqnrz-155" value="" style="shape=tableRow;horizontal=0;startSize=0;swimlaneHead=0;swimlaneBody=0;top=0;left=0;bottom=0;right=0;collapsible=0;dropTarget=0;fillColor=none;points=[[0,0.5],[1,0.5]];portConstraint=eastwest;strokeColor=#909090;fontSize=16;fontColor=#1A1A1A;rounded=1;labelBackgroundColor=none;sketch=1;curveFitting=1;jiggle=2;" parent="yqe6dRdyDtMansCxqnrz-128" vertex="1">
          <mxGeometry y="210" width="230" height="30" as="geometry" />
        </mxCell>
        <mxCell id="yqe6dRdyDtMansCxqnrz-156" value="7" style="shape=partialRectangle;html=1;whiteSpace=wrap;connectable=0;fillColor=none;top=0;left=0;bottom=0;right=0;overflow=hidden;strokeColor=#909090;fontSize=16;fontColor=#1A1A1A;rounded=1;labelBackgroundColor=none;sketch=1;curveFitting=1;jiggle=2;" parent="yqe6dRdyDtMansCxqnrz-155" vertex="1">
          <mxGeometry width="40" height="30" as="geometry">
            <mxRectangle width="40" height="30" as="alternateBounds" />
          </mxGeometry>
        </mxCell>
        <mxCell id="yqe6dRdyDtMansCxqnrz-157" value="Дата изменения" style="shape=partialRectangle;html=1;whiteSpace=wrap;connectable=0;fillColor=none;top=0;left=0;bottom=0;right=0;align=left;spacingLeft=6;overflow=hidden;strokeColor=#909090;fontSize=16;fontColor=#1A1A1A;rounded=1;labelBackgroundColor=none;sketch=1;curveFitting=1;jiggle=2;" parent="yqe6dRdyDtMansCxqnrz-155" vertex="1">
          <mxGeometry x="40" width="190" height="30" as="geometry">
            <mxRectangle width="190" height="30" as="alternateBounds" />
          </mxGeometry>
        </mxCell>
        <mxCell id="yqe6dRdyDtMansCxqnrz-158" style="edgeStyle=orthogonalEdgeStyle;rounded=1;orthogonalLoop=1;jettySize=auto;html=1;exitX=1;exitY=0.5;exitDx=0;exitDy=0;entryX=1;entryY=0.5;entryDx=0;entryDy=0;strokeColor=#182E3E;fontColor=#1A1A1A;" parent="1" source="yqe6dRdyDtMansCxqnrz-140" target="yqe6dRdyDtMansCxqnrz-129" edge="1">
          <mxGeometry relative="1" as="geometry">
            <Array as="points">
              <mxPoint x="1010" y="735" />
              <mxPoint x="1010" y="215" />
            </Array>
          </mxGeometry>
        </mxCell>
        <mxCell id="yqe6dRdyDtMansCxqnrz-159" value="1" style="edgeLabel;html=1;align=center;verticalAlign=middle;resizable=0;points=[];fontColor=#1A1A1A;rounded=1;" parent="yqe6dRdyDtMansCxqnrz-158" vertex="1" connectable="0">
          <mxGeometry x="-0.7705" relative="1" as="geometry">
            <mxPoint x="-40" as="offset" />
          </mxGeometry>
        </mxCell>
        <mxCell id="yqe6dRdyDtMansCxqnrz-160" value="1000" style="edgeLabel;html=1;align=center;verticalAlign=middle;resizable=0;points=[];fontColor=#1A1A1A;rounded=1;" parent="yqe6dRdyDtMansCxqnrz-158" vertex="1" connectable="0">
          <mxGeometry x="0.859" relative="1" as="geometry">
            <mxPoint as="offset" />
          </mxGeometry>
        </mxCell>
        <mxCell id="yqe6dRdyDtMansCxqnrz-165" style="edgeStyle=orthogonalEdgeStyle;rounded=1;orthogonalLoop=1;jettySize=auto;html=1;exitX=0;exitY=0.5;exitDx=0;exitDy=0;entryX=1;entryY=0.5;entryDx=0;entryDy=0;strokeColor=#182E3E;fontColor=#1A1A1A;" parent="1" source="yqe6dRdyDtMansCxqnrz-132" target="yqe6dRdyDtMansCxqnrz-39" edge="1">
          <mxGeometry relative="1" as="geometry" />
        </mxCell>
        <mxCell id="yqe6dRdyDtMansCxqnrz-191" style="edgeStyle=orthogonalEdgeStyle;rounded=1;orthogonalLoop=1;jettySize=auto;html=1;entryX=0;entryY=0.5;entryDx=0;entryDy=0;strokeColor=#182E3E;fontColor=#1A1A1A;" parent="1" source="yqe6dRdyDtMansCxqnrz-188" target="yqe6dRdyDtMansCxqnrz-129" edge="1">
          <mxGeometry relative="1" as="geometry">
            <Array as="points">
              <mxPoint x="210" y="535" />
              <mxPoint x="210" y="215" />
            </Array>
          </mxGeometry>
        </mxCell>
        <mxCell id="yqe6dRdyDtMansCxqnrz-192" value="1" style="edgeLabel;html=1;align=center;verticalAlign=middle;resizable=0;points=[];fontColor=#1A1A1A;rounded=1;" parent="yqe6dRdyDtMansCxqnrz-191" vertex="1" connectable="0">
          <mxGeometry x="-0.8743" y="1" relative="1" as="geometry">
            <mxPoint x="24" as="offset" />
          </mxGeometry>
        </mxCell>
        <mxCell id="yqe6dRdyDtMansCxqnrz-193" value="1000" style="edgeLabel;html=1;align=center;verticalAlign=middle;resizable=0;points=[];fontColor=#1A1A1A;rounded=1;" parent="yqe6dRdyDtMansCxqnrz-191" vertex="1" connectable="0">
          <mxGeometry x="0.86" y="-1" relative="1" as="geometry">
            <mxPoint as="offset" />
          </mxGeometry>
        </mxCell>
        <mxCell id="uWYPwdV6PZLB3BTFIdGM-10" style="edgeStyle=orthogonalEdgeStyle;rounded=1;orthogonalLoop=1;jettySize=auto;html=1;exitX=1;exitY=0.5;exitDx=0;exitDy=0;entryX=0;entryY=0.5;entryDx=0;entryDy=0;" parent="1" source="hEsK_yBPaeeMFCxo3sMm-7" target="yqe6dRdyDtMansCxqnrz-7" edge="1">
          <mxGeometry relative="1" as="geometry">
            <Array as="points">
              <mxPoint x="540" y="595" />
              <mxPoint x="540" y="555" />
            </Array>
          </mxGeometry>
        </mxCell>
        <mxCell id="uWYPwdV6PZLB3BTFIdGM-13" value="1000" style="edgeLabel;html=1;align=center;verticalAlign=middle;resizable=0;points=[];" parent="uWYPwdV6PZLB3BTFIdGM-10" vertex="1" connectable="0">
          <mxGeometry x="-0.72" y="-2" relative="1" as="geometry">
            <mxPoint as="offset" />
          </mxGeometry>
        </mxCell>
        <mxCell id="uWYPwdV6PZLB3BTFIdGM-11" style="edgeStyle=orthogonalEdgeStyle;rounded=1;orthogonalLoop=1;jettySize=auto;html=1;exitX=1;exitY=0.5;exitDx=0;exitDy=0;entryX=0;entryY=0.5;entryDx=0;entryDy=0;" parent="1" source="uWYPwdV6PZLB3BTFIdGM-7" target="yqe6dRdyDtMansCxqnrz-7" edge="1">
          <mxGeometry relative="1" as="geometry">
            <Array as="points">
              <mxPoint x="580" y="625" />
              <mxPoint x="580" y="555" />
            </Array>
          </mxGeometry>
        </mxCell>
        <mxCell id="uWYPwdV6PZLB3BTFIdGM-12" value="1000" style="edgeLabel;html=1;align=center;verticalAlign=middle;resizable=0;points=[];" parent="uWYPwdV6PZLB3BTFIdGM-11" vertex="1" connectable="0">
          <mxGeometry x="-0.5667" relative="1" as="geometry">
            <mxPoint as="offset" />
          </mxGeometry>
        </mxCell>
        <mxCell id="uWYPwdV6PZLB3BTFIdGM-14" value="1000" style="edgeLabel;html=1;align=center;verticalAlign=middle;resizable=0;points=[];" parent="uWYPwdV6PZLB3BTFIdGM-11" vertex="1" connectable="0">
          <mxGeometry x="0.7222" relative="1" as="geometry">
            <mxPoint as="offset" />
          </mxGeometry>
        </mxCell>
      </root>
    </mxGraphModel>
  </diagram>
</mxfile>
